<svg xmlns="http://www.w3.org/2000/svg" viewBox="7217 359.641 124.158 125">
  <g id="noun_979978" transform="translate(7218.736 -606.392)">
    <path id="Path_56" data-name="Path 56" d="M5.392,966.348A1.42,1.42,0,0,0,4,967.792v114.017a1.42,1.42,0,0,0,1.415,1.425H118.579a1.425,1.425,0,0,0,0-2.85H6.829V967.792a1.431,1.431,0,0,0-.415-1.028,1.409,1.409,0,0,0-1.021-.416Z" transform="translate(2.378 0.134)"/>
    <path id="Path_57" data-name="Path 57" d="M47.26,992a5.1,5.1,0,0,1-1.835,2.177L75.6,1022.2a5.072,5.072,0,0,1,1.669-2.333Z" transform="translate(19.551 11.043)"/>
    <path id="Path_58" data-name="Path 58" d="M90.438,999.628a1.41,1.41,0,0,0-1.066.437l-17.257,16.4a5.1,5.1,0,0,1,1.776,2.232l17.419-16.56a1.432,1.432,0,0,0,.416-1.555,1.416,1.416,0,0,0-1.289-.953Z" transform="translate(30.615 14.285)"/>
    <path id="Path_59" data-name="Path 59" d="M42.988,993.546l-4.81,15.516a4.838,4.838,0,0,1,2.569,1.267L45.7,994.362h-.006a4.939,4.939,0,0,1-2.7-.816Z" transform="translate(16.546 11.699)"/>
    <path id="Path_60" data-name="Path 60" d="M31.624,998.327a5.081,5.081,0,0,1-2.141,1.868l7.288,9.178a5.072,5.072,0,0,1,2.105-1.907Z" transform="translate(12.942 13.732)"/>
    <path id="Path_61" data-name="Path 61" d="M33.294,997.653,4.558,1019.633a1.433,1.433,0,0,0-.271,2,1.409,1.409,0,0,0,1.984.273L35,999.933A5.087,5.087,0,0,1,33.294,997.653Z" transform="translate(2.377 13.445)"/>
    <path id="Path_62" data-name="Path 62" d="M15.959,1024.413a5.031,5.031,0,0,1-.854,2.722l30.874,11.535c0-.036-.011-.067-.011-.1a5.018,5.018,0,0,1,.774-2.656l-30.783-11.5Z" transform="translate(6.982 24.824)"/>
    <path id="Path_63" data-name="Path 63" d="M59.432,1026.286c.014.153.047.3.047.459a4.984,4.984,0,0,1-.6,2.335l36.709,6.461a1.425,1.425,0,0,0,.486-2.808Z" transform="translate(25.127 25.62)"/>
    <path id="Path_64" data-name="Path 64" d="M56.09,1027.4l-12.922,6.667a5.022,5.022,0,0,1,1.141,2.614l13.17-6.795A5.068,5.068,0,0,1,56.09,1027.4Z" transform="translate(18.615 26.092)"/>
    <path id="Path_65" data-name="Path 65" d="M12.418,1027.083l-8.36,28.5a1.427,1.427,0,0,0,.955,1.772,1.413,1.413,0,0,0,1.759-.962l8.275-28.209a4.946,4.946,0,0,1-2.627-1.1Z" transform="translate(2.378 25.959)"/>
    <path id="Path_66" data-name="Path 66" d="M81.067,1041.352a1.414,1.414,0,0,0-1.345.837,1.433,1.433,0,0,0,.265,1.571l5.633,6.138-6.412,6.694a1.432,1.432,0,0,0,.036,2.015,1.407,1.407,0,0,0,2-.036l7.338-7.663a1.433,1.433,0,0,0,.022-1.957l-6.54-7.126a1.411,1.411,0,0,0-1-.473Z" transform="translate(33.391 32.026)"/>
    <path id="Path_67" data-name="Path 67" d="M7.278,966.034a1.409,1.409,0,0,0-.937.4l-7.606,7.4a1.432,1.432,0,0,0-.434,1.39,1.42,1.42,0,0,0,1,1.048A1.407,1.407,0,0,0,.7,975.876l6.625-6.438,6.625,6.438a1.411,1.411,0,0,0,2.4-.659,1.432,1.432,0,0,0-.434-1.39l-7.609-7.4a1.408,1.408,0,0,0-1.028-.4Z"/>
    <path id="Path_68" data-name="Path 68" d="M39.111,1004.381a5.055,5.055,0,0,0,0,10.11,5,5,0,0,0,4.9-4.468,1.511,1.511,0,0,0,0-1.175,5,5,0,0,0-4.9-4.468Zm0,2.85a2.2,2.2,0,1,1-2.188,2.2A2.177,2.177,0,0,1,39.111,1007.231Z" transform="translate(14.853 16.306)"/>
    <path id="Path_69" data-name="Path 69" d="M29.49,992.871a5.057,5.057,0,1,0,5.017,5.055A5.058,5.058,0,0,0,29.49,992.871Zm0,2.85a2.206,2.206,0,1,1-2.188,2.2A2.175,2.175,0,0,1,29.49,995.722Z" transform="translate(10.865 11.412)"/>
    <path id="Path_70" data-name="Path 70" d="M44.961,987.023a5.055,5.055,0,1,0,5.017,5.055A5.058,5.058,0,0,0,44.961,987.023Zm0,2.85a2.2,2.2,0,1,1-2.188,2.2A2.175,2.175,0,0,1,44.961,989.874Z" transform="translate(17.278 8.925)"/>
    <path id="Path_71" data-name="Path 71" d="M71.564,1010.8a5.055,5.055,0,1,0,5.017,5.055A5.058,5.058,0,0,0,71.564,1010.8Zm0,2.85a2.2,2.2,0,1,1-2.188,2.2A2.175,2.175,0,0,1,71.564,1013.647Z" transform="translate(28.307 19.034)"/>
    <path id="Path_72" data-name="Path 72" d="M57.224,1023.06a5.055,5.055,0,1,0,5.02,5.055,5.058,5.058,0,0,0-5.02-5.055Zm0,2.851a2.2,2.2,0,1,1-2.188,2.2A2.177,2.177,0,0,1,57.224,1025.911Z" transform="translate(22.362 24.249)"/>
    <path id="Path_73" data-name="Path 73" d="M41.944,1030.8a5.055,5.055,0,1,0,5.017,5.055A5.06,5.06,0,0,0,41.944,1030.8Zm0,2.85a2.2,2.2,0,1,1-2.191,2.2A2.175,2.175,0,0,1,41.944,1033.647Z" transform="translate(16.027 27.538)"/>
    <path id="Path_74" data-name="Path 74" d="M13.64,1020.8a5.055,5.055,0,1,0,5.017,5.055A5.058,5.058,0,0,0,13.64,1020.8Zm0,2.85a2.2,2.2,0,1,1-2.188,2.2A2.175,2.175,0,0,1,13.64,1023.647Z" transform="translate(4.294 23.286)"/>
  </g>
</svg>
