<svg xmlns="http://www.w3.org/2000/svg" viewBox="5029 2470 89.023 80">
  <defs>
    <style>
      .cls-1 {
        opacity: 0.07;
      }

      .cls-2 {
        fill: #fff;
      }
    </style>
  </defs>
  <g id="BigQuery" transform="translate(5028.997 2463.5)">
    <path id="Path_45" data-name="Path 45" d="M87.957,42.4,69.666,10.589A8.04,8.04,0,0,0,62.809,6.5H26.22a8.033,8.033,0,0,0-6.857,4.089L1.065,42.317a7.984,7.984,0,0,0,0,7.956L19.356,82.265A8.186,8.186,0,0,0,26.213,86.5H62.8a8.158,8.158,0,0,0,6.864-4.215L87.957,50.475A8.158,8.158,0,0,0,87.957,42.4Z"/>
    <path id="Path_46" data-name="Path 46" class="cls-1" d="M82.851,93.511l12.192-21.2L69.255,46.525,57.7,43.43,47.313,47.3,43.3,57.736l3.227,11.635L74.881,97.725h1.106A8.158,8.158,0,0,0,82.851,93.511Z" transform="translate(-13.185 -11.246)"/>
    <g id="art" transform="translate(28.383 30.355)">
      <g id="Group_15" data-name="Group 15">
        <path id="Path_47" data-name="Path 47" class="cls-2" d="M56.938,40.8A16.128,16.128,0,1,0,73.066,56.935,16.128,16.128,0,0,0,56.938,40.8m0,28.375a12.24,12.24,0,1,1,12.24-12.24,12.24,12.24,0,0,1-12.24,12.24" transform="translate(-40.81 -40.8)"/>
        <path id="Path_48" data-name="Path 48" class="cls-2" d="M53,63.1v5.014a8.9,8.9,0,0,0,3.046,3.116V63.1Z" transform="translate(-44.522 -47.591)"/>
        <path id="Path_49" data-name="Path 49" class="cls-2" d="M61.67,57V70.52a8.193,8.193,0,0,0,3.046,0V57Z" transform="translate(-47.162 -45.733)"/>
        <path id="Path_50" data-name="Path 50" class="cls-2" d="M70.77,66.1v5.953a8.888,8.888,0,0,0,3.046-3.241V66.1Z" transform="translate(-49.934 -48.505)"/>
        <path id="Path_51" data-name="Path 51" class="cls-2" d="M79.864,78.195l-1.669,1.676a.758.758,0,0,0,0,1.064L84.53,87.27a.758.758,0,0,0,1.071,0L87.27,85.6a.758.758,0,0,0,0-1.064l-6.343-6.343a.758.758,0,0,0-1.064,0" transform="translate(-52.128 -52.121)"/>
      </g>
    </g>
  </g>
</svg>
