<svg xmlns="http://www.w3.org/2000/svg" viewBox="5302 2466.319 61.024 83.68">
  <defs>
    <style>
      .cls-1 {
        stroke: #fff;
        stroke-width: 3px;
      }

      .cls-2 {
        fill: #fff;
      }
    </style>
  </defs>
  <g id="sheets" transform="translate(5294.6 2463.9)">
    <path id="Path_52" data-name="Path 52" d="M64.86,81.557a4.616,4.616,0,0,1-4.609,4.609H12.009A4.616,4.616,0,0,1,7.4,81.557V10.809A4.616,4.616,0,0,1,12.009,6.2H43.027L64.86,28.572Z" transform="translate(0 -0.066)"/>
    <path id="Path_53" data-name="Path 53" d="M120.4,71l19.445,18.57-.067-18.032Z" transform="translate(-74.985 -43.067)"/>
    <path id="Path_54" data-name="Path 54" class="cls-1" d="M135.067,28.472H117.809a4.616,4.616,0,0,1-4.609-4.609V6.1Z" transform="translate(-70.207 0)"/>
    <path id="Path_55" data-name="Path 55" class="cls-2" d="M48.4,123v25.9H78.307V123Zm26.173,8.31H65.187V126.7h9.386ZM65.187,134.1h9.386v4.306H65.187Zm-3.7-7.4v4.609H52.1V126.7Zm0,11.707H52.1V134.1h9.386Zm-9.42,2.759h9.386v4H52.067Zm13.12,4v-4h9.386v4Z" transform="translate(-27.207 -77.573)"/>
  </g>
</svg>
