<svg xmlns="http://www.w3.org/2000/svg" viewBox="4778.5 2022.5 81 81">
  <defs>
    <style>
      .cls-1 {
        fill: none;
        stroke: #000;
      }
    </style>
  </defs>
  <g id="javascript" transform="translate(4779 2023)">
    <path id="Path_13" data-name="Path 13" class="cls-1" d="M0,0H80V80H0Z"/>
    <path id="Path_14" data-name="Path 14" d="M67.311,147.655l6.122-3.705c1.181,2.094,2.255,3.866,4.833,3.866,2.47,0,4.028-.966,4.028-4.725V117.529h7.518V143.2c0,7.787-4.564,11.331-11.223,11.331-6.014,0-9.505-3.115-11.277-6.874" transform="translate(-46.277 -80.801)"/>
    <path id="Path_15" data-name="Path 15" d="M152.381,145.9l6.121-3.544c1.611,2.632,3.706,4.565,7.411,4.565,3.115,0,5.1-1.557,5.1-3.706,0-2.578-2.041-3.491-5.477-4.994l-1.879-.806c-5.424-2.309-9.022-5.209-9.022-11.331,0-5.639,4.3-9.935,11.009-9.935,4.779,0,8.216,1.665,10.686,6.015l-5.853,3.759c-1.289-2.309-2.685-3.222-4.833-3.222-2.2,0-3.6,1.4-3.6,3.222,0,2.255,1.4,3.169,4.618,4.565l1.879.805c6.39,2.739,9.989,5.531,9.989,11.814,0,6.767-5.316,10.472-12.458,10.472-6.981,0-11.492-3.329-13.693-7.679" transform="translate(-104.762 -79.855)"/>
  </g>
</svg>
