<svg xmlns="http://www.w3.org/2000/svg" viewBox="7215 836 153.844 125">
  <defs>
    <style>
      .cls-1 {
        fill-rule: evenodd;
      }
    </style>
  </defs>
  <path id="noun_183297" class="cls-1" d="M151.037,27.231h-4.808V22.423a4.808,4.808,0,0,0-4.808-4.808H69.307L64.5,12.808C59.692,8,59.692,8,50.076,8H6.808A4.807,4.807,0,0,0,2,12.808V128.191A4.81,4.81,0,0,0,6.808,133H151.037a4.81,4.81,0,0,0,4.808-4.809V32.038A4.807,4.807,0,0,0,151.037,27.231Zm-9.615-4.808v4.808H83.73v.016a17.144,17.144,0,0,1-4.9-.46,8.14,8.14,0,0,1-1.66-1.309l-1.644-1.644-1.409-1.41Zm9.615,105.768H6.808V12.808H50.076c1.4,0,6.474-.151,7.718.444a7.994,7.994,0,0,1,1.654,1.3L61.1,16.205,72.122,27.231c4.28,4.28,4.768,4.748,11.607,4.8v.008h67.307Z" transform="translate(7213 828)"/>
</svg>
