<svg xmlns="http://www.w3.org/2000/svg" viewBox="5287 2025 85.445 80">
  <g id="python" transform="translate(5286.855 2024.928)">
    <path id="Path_1" data-name="Path 1" d="M42.559.072c-21.691,0-20.337,8.853-20.337,8.853l.024,9.172h20.7v2.754H14.025S.145,19.37.145,39.969,12.26,59.838,12.26,59.838h7.23V50.279s-.39-11.4,11.922-11.4h20.53s11.535.175,11.535-10.492V10.746S65.227.072,42.559.072ZM31.145,6.24a3.616,3.616,0,0,1,3.724,3.5,3.731,3.731,0,0,1-7.448,0,3.616,3.616,0,0,1,3.724-3.5Z" transform="translate(0 0)"/>
    <path id="Path_2" data-name="Path 2" d="M87.093,124.089c21.691,0,20.337-8.853,20.337-8.853l-.024-9.172h-20.7V103.31h28.921s13.88,1.482,13.88-19.118-12.115-19.869-12.115-19.869h-7.23v9.559s.39,11.4-11.922,11.4H77.711s-11.535-.175-11.535,10.492v17.638s-1.751,10.674,20.917,10.674Zm11.414-6.168a3.511,3.511,0,1,1,3.724-3.5,3.616,3.616,0,0,1-3.724,3.5Z" transform="translate(-43.918 -44.017)"/>
  </g>
</svg>
