<svg xmlns="http://www.w3.org/2000/svg" viewBox="5037 2025 72 80">
  <path id="noun_1025836" d="M68,30c-13.4,0-36,2.2-36,10v60c0,7.8,22.6,10,36,10s36-2.2,36-10V40C104,32.2,81.4,30,68,30Zm0,4c20,0,31.6,4,32,6-.4,2-12,6-32,6s-31.6-4-32-6C36.4,38,48,34,68,34ZM36,45c7,3.8,22,5,32,5s25-1.2,32-5V60c-.4,2-12,6-32,6s-31.6-4-32-6h0Zm0,20c7,3.8,22,5,32,5s25-1.2,32-5V80c-.4,2-12,6-32,6s-31.6-4-32-6h0Zm32,41c-20,0-31.6-4-32-6V85c7,3.8,22,5,32,5s25-1.2,32-5v15C99.6,102,88,106,68,106Z" transform="translate(5005 1995)"/>
</svg>
