<svg xmlns="http://www.w3.org/2000/svg" viewBox="6564.5 840.687 78.207 125">
  <g id="noun_999886" transform="translate(6552.3 839.187)">
    <path id="Path_75" data-name="Path 75" d="M51.3,1.5A39.19,39.19,0,0,0,12.2,40.6V87.4a39.1,39.1,0,1,0,78.207,0V40.6A39.19,39.19,0,0,0,51.3,1.5ZM83.817,87.616a32.513,32.513,0,1,1-65.026,0V40.6a32.513,32.513,0,1,1,65.026,0Z"/>
    <path id="Path_76" data-name="Path 76" d="M34.787,10.3A8.813,8.813,0,0,0,26,19.087v13.84a8.787,8.787,0,1,0,17.575,0V19.087A8.813,8.813,0,0,0,34.787,10.3Zm2.2,22.627a2.2,2.2,0,0,1-2.2,2.2,2.362,2.362,0,0,1-2.2-2.2V19.087a2.2,2.2,0,0,1,2.2-2.2,2.362,2.362,0,0,1,2.2,2.2Z" transform="translate(16.516 10.532)"/>
  </g>
</svg>
